<svg width="195" height="52" viewBox="0 0 195 52" fill="none" xmlns="http://www.w3.org/2000/svg">
<path d="M72.296 34.168C71.176 34.168 70.168 33.976 69.272 33.592C68.376 33.192 67.672 32.632 67.16 31.912C66.648 31.192 66.392 30.352 66.392 29.392H69.32C69.384 30.112 69.664 30.704 70.16 31.168C70.672 31.632 71.384 31.864 72.296 31.864C73.24 31.864 73.976 31.64 74.504 31.192C75.032 30.728 75.296 30.136 75.296 29.416C75.296 28.856 75.128 28.4 74.792 28.048C74.472 27.696 74.064 27.424 73.568 27.232C73.088 27.04 72.416 26.832 71.552 26.608C70.464 26.32 69.576 26.032 68.888 25.744C68.216 25.44 67.64 24.976 67.16 24.352C66.68 23.728 66.44 22.896 66.44 21.856C66.44 20.896 66.68 20.056 67.16 19.336C67.64 18.616 68.312 18.064 69.176 17.68C70.04 17.296 71.04 17.104 72.176 17.104C73.792 17.104 75.112 17.512 76.136 18.328C77.176 19.128 77.752 20.232 77.864 21.64H74.84C74.792 21.032 74.504 20.512 73.976 20.08C73.448 19.648 72.752 19.432 71.888 19.432C71.104 19.432 70.464 19.632 69.968 20.032C69.472 20.432 69.224 21.008 69.224 21.76C69.224 22.272 69.376 22.696 69.68 23.032C70 23.352 70.4 23.608 70.88 23.8C71.36 23.992 72.016 24.2 72.848 24.424C73.952 24.728 74.848 25.032 75.536 25.336C76.24 25.64 76.832 26.112 77.312 26.752C77.808 27.376 78.056 28.216 78.056 29.272C78.056 30.12 77.824 30.92 77.36 31.672C76.912 32.424 76.248 33.032 75.368 33.496C74.504 33.944 73.48 34.168 72.296 34.168ZM82.6764 19.024C82.1804 19.024 81.7644 18.856 81.4284 18.52C81.0924 18.184 80.9244 17.768 80.9244 17.272C80.9244 16.776 81.0924 16.36 81.4284 16.024C81.7644 15.688 82.1804 15.52 82.6764 15.52C83.1564 15.52 83.5644 15.688 83.9004 16.024C84.2364 16.36 84.4044 16.776 84.4044 17.272C84.4044 17.768 84.2364 18.184 83.9004 18.52C83.5644 18.856 83.1564 19.024 82.6764 19.024ZM84.0204 20.776V34H81.2844V20.776H84.0204ZM90.3485 16.24V34H87.6125V16.24H90.3485ZM106.061 27.064C106.061 27.56 106.029 28.008 105.965 28.408H95.8606C95.9406 29.464 96.3326 30.312 97.0366 30.952C97.7406 31.592 98.6046 31.912 99.6286 31.912C101.101 31.912 102.141 31.296 102.749 30.064H105.701C105.301 31.28 104.573 32.28 103.517 33.064C102.477 33.832 101.181 34.216 99.6286 34.216C98.3646 34.216 97.2286 33.936 96.2206 33.376C95.2286 32.8 94.4446 32 93.8686 30.976C93.3086 29.936 93.0286 28.736 93.0286 27.376C93.0286 26.016 93.3006 24.824 93.8446 23.8C94.4046 22.76 95.1806 21.96 96.1726 21.4C97.1806 20.84 98.3326 20.56 99.6286 20.56C100.877 20.56 101.989 20.832 102.965 21.376C103.941 21.92 104.701 22.688 105.245 23.68C105.789 24.656 106.061 25.784 106.061 27.064ZM103.205 26.2C103.189 25.192 102.829 24.384 102.125 23.776C101.421 23.168 100.549 22.864 99.5086 22.864C98.5646 22.864 97.7566 23.168 97.0846 23.776C96.4126 24.368 96.0126 25.176 95.8846 26.2H103.205ZM115.425 20.56C116.465 20.56 117.393 20.776 118.209 21.208C119.041 21.64 119.689 22.28 120.153 23.128C120.617 23.976 120.849 25 120.849 26.2V34H118.137V26.608C118.137 25.424 117.841 24.52 117.249 23.896C116.657 23.256 115.849 22.936 114.825 22.936C113.801 22.936 112.985 23.256 112.377 23.896C111.785 24.52 111.489 25.424 111.489 26.608V34H108.753V20.776H111.489V22.288C111.937 21.744 112.505 21.32 113.193 21.016C113.897 20.712 114.641 20.56 115.425 20.56ZM127.531 23.008V30.328C127.531 30.824 127.643 31.184 127.867 31.408C128.107 31.616 128.507 31.72 129.067 31.72H130.747V34H128.587C127.355 34 126.411 33.712 125.755 33.136C125.099 32.56 124.771 31.624 124.771 30.328V23.008H123.211V20.776H124.771V17.488H127.531V20.776H130.747V23.008H127.531ZM138.765 34.168C137.645 34.168 136.637 33.976 135.741 33.592C134.845 33.192 134.141 32.632 133.629 31.912C133.117 31.192 132.861 30.352 132.861 29.392H135.789C135.853 30.112 136.133 30.704 136.629 31.168C137.141 31.632 137.853 31.864 138.765 31.864C139.709 31.864 140.445 31.64 140.973 31.192C141.501 30.728 141.765 30.136 141.765 29.416C141.765 28.856 141.597 28.4 141.261 28.048C140.941 27.696 140.533 27.424 140.037 27.232C139.557 27.04 138.885 26.832 138.021 26.608C136.933 26.32 136.045 26.032 135.357 25.744C134.685 25.44 134.109 24.976 133.629 24.352C133.149 23.728 132.909 22.896 132.909 21.856C132.909 20.896 133.149 20.056 133.629 19.336C134.109 18.616 134.781 18.064 135.645 17.68C136.509 17.296 137.509 17.104 138.645 17.104C140.261 17.104 141.581 17.512 142.605 18.328C143.645 19.128 144.221 20.232 144.333 21.64H141.309C141.261 21.032 140.973 20.512 140.445 20.08C139.917 19.648 139.221 19.432 138.357 19.432C137.573 19.432 136.933 19.632 136.437 20.032C135.941 20.432 135.693 21.008 135.693 21.76C135.693 22.272 135.845 22.696 136.149 23.032C136.469 23.352 136.869 23.608 137.349 23.8C137.829 23.992 138.485 24.2 139.317 24.424C140.421 24.728 141.317 25.032 142.005 25.336C142.709 25.64 143.301 26.112 143.781 26.752C144.277 27.376 144.525 28.216 144.525 29.272C144.525 30.12 144.293 30.92 143.829 31.672C143.381 32.424 142.717 33.032 141.837 33.496C140.973 33.944 139.949 34.168 138.765 34.168ZM150.945 23.008V30.328C150.945 30.824 151.057 31.184 151.281 31.408C151.521 31.616 151.921 31.72 152.481 31.72H154.161V34H152.001C150.769 34 149.825 33.712 149.169 33.136C148.513 32.56 148.185 31.624 148.185 30.328V23.008H146.625V20.776H148.185V17.488H150.945V20.776H154.161V23.008H150.945ZM162.419 34.216C161.171 34.216 160.043 33.936 159.035 33.376C158.027 32.8 157.235 32 156.659 30.976C156.083 29.936 155.795 28.736 155.795 27.376C155.795 26.032 156.091 24.84 156.683 23.8C157.275 22.76 158.083 21.96 159.107 21.4C160.131 20.84 161.275 20.56 162.539 20.56C163.803 20.56 164.947 20.84 165.971 21.4C166.995 21.96 167.803 22.76 168.395 23.8C168.987 24.84 169.283 26.032 169.283 27.376C169.283 28.72 168.979 29.912 168.371 30.952C167.763 31.992 166.931 32.8 165.875 33.376C164.835 33.936 163.683 34.216 162.419 34.216ZM162.419 31.84C163.123 31.84 163.779 31.672 164.387 31.336C165.011 31 165.515 30.496 165.899 29.824C166.283 29.152 166.475 28.336 166.475 27.376C166.475 26.416 166.291 25.608 165.923 24.952C165.555 24.28 165.067 23.776 164.459 23.44C163.851 23.104 163.195 22.936 162.491 22.936C161.787 22.936 161.131 23.104 160.523 23.44C159.931 23.776 159.459 24.28 159.107 24.952C158.755 25.608 158.579 26.416 158.579 27.376C158.579 28.8 158.939 29.904 159.659 30.688C160.395 31.456 161.315 31.84 162.419 31.84ZM174.724 22.696C175.124 22.024 175.652 21.504 176.308 21.136C176.98 20.752 177.772 20.56 178.684 20.56V23.392H177.988C176.916 23.392 176.1 23.664 175.54 24.208C174.996 24.752 174.724 25.696 174.724 27.04V34H171.988V20.776H174.724V22.696ZM193.318 27.064C193.318 27.56 193.286 28.008 193.222 28.408H183.118C183.198 29.464 183.59 30.312 184.294 30.952C184.998 31.592 185.862 31.912 186.886 31.912C188.358 31.912 189.398 31.296 190.006 30.064H192.958C192.558 31.28 191.83 32.28 190.774 33.064C189.734 33.832 188.438 34.216 186.886 34.216C185.622 34.216 184.486 33.936 183.478 33.376C182.486 32.8 181.702 32 181.126 30.976C180.566 29.936 180.286 28.736 180.286 27.376C180.286 26.016 180.558 24.824 181.102 23.8C181.662 22.76 182.438 21.96 183.43 21.4C184.438 20.84 185.59 20.56 186.886 20.56C188.134 20.56 189.246 20.832 190.222 21.376C191.198 21.92 191.958 22.688 192.502 23.68C193.046 24.656 193.318 25.784 193.318 27.064ZM190.462 26.2C190.446 25.192 190.086 24.384 189.382 23.776C188.678 23.168 187.806 22.864 186.766 22.864C185.822 22.864 185.014 23.168 184.342 23.776C183.67 24.368 183.27 25.176 183.142 26.2H190.462Z" fill="#5E72E4"/>
<rect opacity="0.2" width="48" height="48" rx="24" fill="#5E72E4"/>
<rect x="21" y="20" width="32" height="32" rx="16" fill="#5E72E4"/>
</svg>
