<svg width="304" height="82" viewBox="0 0 304 82" fill="none" xmlns="http://www.w3.org/2000/svg">
<path d="M112.71 53.7349C110.964 53.7349 109.392 53.4356 107.995 52.8369C106.599 52.2133 105.501 51.3403 104.703 50.2178C103.905 49.0953 103.506 47.7858 103.506 46.2891H108.07C108.17 47.4116 108.607 48.3345 109.38 49.0579C110.178 49.7813 111.288 50.143 112.71 50.143C114.182 50.143 115.329 49.7938 116.152 49.0953C116.975 48.3719 117.387 47.449 117.387 46.3265C117.387 45.4535 117.125 44.7426 116.601 44.1938C116.102 43.645 115.466 43.221 114.693 42.9217C113.945 42.6223 112.897 42.2981 111.55 41.9488C109.854 41.4998 108.469 41.0508 107.397 40.6019C106.349 40.1279 105.451 39.4045 104.703 38.4317C103.955 37.4589 103.58 36.1618 103.58 34.5404C103.58 33.0438 103.955 31.7342 104.703 30.6117C105.451 29.4893 106.499 28.6287 107.846 28.03C109.193 27.4314 110.752 27.132 112.523 27.132C115.042 27.132 117.1 27.7681 118.696 29.0403C120.318 30.2875 121.216 32.0086 121.39 34.2037H116.676C116.601 33.2558 116.152 32.4451 115.329 31.7716C114.506 31.0981 113.421 30.7614 112.074 30.7614C110.852 30.7614 109.854 31.0732 109.081 31.6968C108.307 32.3204 107.921 33.2184 107.921 34.3908C107.921 35.189 108.158 35.85 108.632 36.3738C109.13 36.8727 109.754 37.2718 110.502 37.5711C111.251 37.8705 112.273 38.1947 113.57 38.544C115.292 39.0179 116.688 39.4918 117.761 39.9658C118.859 40.4397 119.782 41.1756 120.53 42.1733C121.303 43.1461 121.69 44.4557 121.69 46.102C121.69 47.4241 121.328 48.6713 120.605 49.8436C119.906 51.016 118.871 51.9639 117.499 52.6873C116.152 53.3857 114.556 53.7349 112.71 53.7349ZM128.893 30.1253C128.12 30.1253 127.471 29.8634 126.947 29.3396C126.424 28.8158 126.162 28.1672 126.162 27.394C126.162 26.6207 126.424 25.9721 126.947 25.4483C127.471 24.9245 128.12 24.6626 128.893 24.6626C129.641 24.6626 130.277 24.9245 130.801 25.4483C131.325 25.9721 131.587 26.6207 131.587 27.394C131.587 28.1672 131.325 28.8158 130.801 29.3396C130.277 29.8634 129.641 30.1253 128.893 30.1253ZM130.988 32.8567V53.473H126.723V32.8567H130.988ZM140.854 25.7851V53.473H136.588V25.7851H140.854ZM165.349 42.6597C165.349 43.433 165.299 44.1314 165.199 44.755H149.447C149.572 46.4014 150.183 47.7234 151.281 48.7212C152.378 49.7189 153.725 50.2178 155.322 50.2178C157.616 50.2178 159.238 49.2575 160.186 47.3368H164.788C164.164 49.2325 163.029 50.7915 161.383 52.0138C159.762 53.2111 157.741 53.8098 155.322 53.8098C153.351 53.8098 151.58 53.3732 150.009 52.5002C148.462 51.6022 147.24 50.355 146.342 48.7586C145.469 47.1372 145.032 45.2664 145.032 43.1461C145.032 41.0259 145.456 39.1676 146.304 37.5711C147.177 35.9498 148.387 34.7026 149.934 33.8295C151.505 32.9565 153.301 32.52 155.322 32.52C157.267 32.52 159.001 32.944 160.522 33.7921C162.044 34.6402 163.229 35.8375 164.077 37.3841C164.925 38.9057 165.349 40.6642 165.349 42.6597ZM160.897 41.3128C160.872 39.7413 160.31 38.4816 159.213 37.5337C158.115 36.5859 156.756 36.1119 155.135 36.1119C153.663 36.1119 152.403 36.5859 151.356 37.5337C150.308 38.4567 149.684 39.7163 149.485 41.3128H160.897ZM179.948 32.52C181.57 32.52 183.017 32.8567 184.289 33.5302C185.586 34.2037 186.596 35.2015 187.319 36.5235C188.043 37.8455 188.405 39.442 188.405 41.3128V53.473H184.176V41.9488C184.176 40.103 183.715 38.6936 182.792 37.7208C181.869 36.723 180.609 36.2242 179.013 36.2242C177.417 36.2242 176.144 36.723 175.197 37.7208C174.274 38.6936 173.812 40.103 173.812 41.9488V53.473H169.547V32.8567H173.812V35.2139C174.511 34.3658 175.396 33.7048 176.469 33.2309C177.566 32.7569 178.726 32.52 179.948 32.52ZM198.822 36.3364V47.7483C198.822 48.5216 198.996 49.0828 199.346 49.4321C199.72 49.7563 200.343 49.9185 201.216 49.9185H203.835V53.473H200.468C198.547 53.473 197.076 53.024 196.053 52.126C195.03 51.228 194.519 49.7688 194.519 47.7483V36.3364H192.087V32.8567H194.519V27.7307H198.822V32.8567H203.835V36.3364H198.822ZM216.335 53.7349C214.589 53.7349 213.018 53.4356 211.621 52.8369C210.224 52.2133 209.126 51.3403 208.328 50.2178C207.53 49.0953 207.131 47.7858 207.131 46.2891H211.695C211.795 47.4116 212.232 48.3345 213.005 49.0579C213.803 49.7813 214.913 50.143 216.335 50.143C217.807 50.143 218.954 49.7938 219.777 49.0953C220.601 48.3719 221.012 47.449 221.012 46.3265C221.012 45.4535 220.75 44.7426 220.226 44.1938C219.727 43.645 219.091 43.221 218.318 42.9217C217.57 42.6223 216.522 42.2981 215.175 41.9488C213.479 41.4998 212.095 41.0508 211.022 40.6019C209.974 40.1279 209.076 39.4045 208.328 38.4317C207.58 37.4589 207.206 36.1618 207.206 34.5404C207.206 33.0438 207.58 31.7342 208.328 30.6117C209.076 29.4893 210.124 28.6287 211.471 28.03C212.818 27.4314 214.377 27.132 216.148 27.132C218.667 27.132 220.725 27.7681 222.322 29.0403C223.943 30.2875 224.841 32.0086 225.016 34.2037H220.301C220.226 33.2558 219.777 32.4451 218.954 31.7716C218.131 31.0981 217.046 30.7614 215.699 30.7614C214.477 30.7614 213.479 31.0732 212.706 31.6968C211.932 32.3204 211.546 33.2184 211.546 34.3908C211.546 35.189 211.783 35.85 212.257 36.3738C212.756 36.8727 213.379 37.2718 214.128 37.5711C214.876 37.8705 215.899 38.1947 217.196 38.544C218.917 39.0179 220.314 39.4918 221.386 39.9658C222.484 40.4397 223.407 41.1756 224.155 42.1733C224.928 43.1461 225.315 44.4557 225.315 46.102C225.315 47.4241 224.953 48.6713 224.23 49.8436C223.531 51.016 222.496 51.9639 221.124 52.6873C219.777 53.3857 218.181 53.7349 216.335 53.7349ZM235.324 36.3364V47.7483C235.324 48.5216 235.499 49.0828 235.848 49.4321C236.222 49.7563 236.846 49.9185 237.719 49.9185H240.338V53.473H236.971C235.05 53.473 233.578 53.024 232.556 52.126C231.533 51.228 231.022 49.7688 231.022 47.7483V36.3364H228.589V32.8567H231.022V27.7307H235.324V32.8567H240.338V36.3364H235.324ZM253.212 53.8098C251.266 53.8098 249.508 53.3732 247.936 52.5002C246.365 51.6022 245.13 50.355 244.232 48.7586C243.334 47.1372 242.885 45.2664 242.885 43.1461C242.885 41.0508 243.347 39.1925 244.269 37.5711C245.192 35.9498 246.452 34.7026 248.048 33.8295C249.645 32.9565 251.428 32.52 253.399 32.52C255.37 32.52 257.153 32.9565 258.75 33.8295C260.346 34.7026 261.606 35.9498 262.529 37.5711C263.451 39.1925 263.913 41.0508 263.913 43.1461C263.913 45.2415 263.439 47.0998 262.491 48.7212C261.543 50.3425 260.246 51.6022 258.6 52.5002C256.978 53.3732 255.183 53.8098 253.212 53.8098ZM253.212 50.1056C254.309 50.1056 255.332 49.8436 256.28 49.3198C257.253 48.796 258.039 48.0102 258.637 46.9626C259.236 45.9149 259.535 44.6428 259.535 43.1461C259.535 41.6495 259.248 40.3898 258.675 39.3671C258.101 38.3195 257.34 37.5337 256.392 37.0099C255.444 36.4861 254.422 36.2242 253.324 36.2242C252.227 36.2242 251.204 36.4861 250.256 37.0099C249.333 37.5337 248.597 38.3195 248.048 39.3671C247.5 40.3898 247.225 41.6495 247.225 43.1461C247.225 45.3662 247.787 47.0873 248.909 48.3096C250.056 49.5069 251.491 50.1056 253.212 50.1056ZM272.395 35.85C273.019 34.8023 273.842 33.9917 274.864 33.418C275.912 32.8193 277.147 32.52 278.569 32.52V36.9351H277.484C275.812 36.9351 274.54 37.3591 273.667 38.2072C272.819 39.0553 272.395 40.527 272.395 42.6223V53.473H268.13V32.8567H272.395V35.85ZM301.385 42.6597C301.385 43.433 301.335 44.1314 301.235 44.755H285.483C285.607 46.4014 286.219 47.7234 287.316 48.7212C288.414 49.7189 289.761 50.2178 291.357 50.2178C293.652 50.2178 295.273 49.2575 296.221 47.3368H300.823C300.2 49.2325 299.065 50.7915 297.419 52.0138C295.797 53.2111 293.777 53.8098 291.357 53.8098C289.387 53.8098 287.615 53.3732 286.044 52.5002C284.497 51.6022 283.275 50.355 282.377 48.7586C281.504 47.1372 281.068 45.2664 281.068 43.1461C281.068 41.0259 281.492 39.1676 282.34 37.5711C283.213 35.9498 284.423 34.7026 285.969 33.8295C287.541 32.9565 289.337 32.52 291.357 32.52C293.303 32.52 295.036 32.944 296.558 33.7921C298.08 34.6402 299.264 35.8375 300.112 37.3841C300.961 38.9057 301.385 40.6642 301.385 42.6597ZM296.932 41.3128C296.907 39.7413 296.346 38.4816 295.248 37.5337C294.151 36.5859 292.791 36.1119 291.17 36.1119C289.698 36.1119 288.439 36.5859 287.391 37.5337C286.343 38.4567 285.72 39.7163 285.52 41.3128H296.932Z" fill="white"/>
<rect opacity="0.2" width="74.8323" height="74.8323" rx="37.4161" fill="white"/>
<rect x="32.7391" y="31.1801" width="49.8882" height="49.8882" rx="24.9441" fill="white"/>
</svg>
